<svg xmlns="http://www.w3.org/2000/svg" viewBox="0 0 427 156"><g fill="#fff"><path d="M26.41 52.02c5.87 13.78 5.88 35.35-4.02 39.56-6.82 2.9-13.31-2.31-17.13-11.28-1.96-4.62-3.75-10.1-.18-14.54-1.2-1.15-2.06-2.6-2.74-4.21-2.99-7.02-1.21-16.95 6.28-20.14 9.23-3.93 14.65 3.25 17.79 10.61zm-14.33-9.71C6.89 44.6 6.17 54.23 8.96 60.79c1.34 3.14 3.47 5.56 6.33 6.16.61.14.95.38 1.1.72.11.27 0 .55-.54.78-1.94.83-4.72.43-6.32 0l.13 1.05c.53 4.59 1.43 9.11 3.1 12.67 2.11 4.95 4.87 8.28 8.03 8.28 6.19-2.71 2.78-27.81-2.74-40.79-1.23-2.89-2.66-6.63-5.97-7.35zM39.49 27.45c2.15.39 3.85 1.24 5.49 5.83 3.39 9.44 4.56 29.03-4.01 31.19.71 3.69 1.47 6.89 2.23 9.01 1.06 2.94 2.37 4.02 4.29 3.33 3.63-1.3 5.95-8.16 6.63-13.82.07-.88.38-1.3.73-1.42.27-.1.58.1.75.58.1.27.13.57.14 1.03-.23 6.03-3.04 16.7-8.92 18.81-4.65 1.67-7.73-1.94-9.94-8.1-1.4-3.9-2.48-8.84-3.29-14.11-2.39-14.6-3.54-30.48 2.69-32.72 1.21-.44 2.49-.13 3.21.39zm1.16 35.27c3.92-6.51 2.44-22.67-.43-30.67-.39-1.09-.83-2.1-1.26-2.87-2.2 1.64-.68 20.26 1.69 33.54z"/><path d="M74.55 64.83c.57 1.88 1.3 2.8 2.28 2.5 2.44-.74 3.38-8.16 4.11-12.56.12-.87.55-1.46.9-1.56.28-.08.5.15.63.57.08.28.14.72.08 1.27-.46 4.77-.34 15.22-7.16 17.28-2.78.84-5.29-1.67-6.55-5.85-.06-.21-.19-.63-.25-1.07-.83 5.8-2.67 9.77-5.04 10.49-3.76 1.14-6.58-2.42-8.22-7.85-3.2-10.58-1.82-28.16 6.18-30.58 1.88-.57 3.5.77 4.63 2.25-.52-6.98-.81-13.73-.92-17.88-.04-1.13.72-1.89 1.76-2.2 1.74-.53 4.25.24 5.03 2.81 1.36 4.53.1 34.3 2.54 42.38zm-8.19-22.06c-.34-.88-1.07-2.03-2.6-1.57-4.66 1.41-3.99 18.98-1.78 26.29.63 2.09 1.38 3.31 2.21 3.05 2.78-.84 3.4-8.62 2.96-17.61-.27-3.18-.56-6.66-.79-10.16z"/><path d="M77.11 63.68c-.54-2.19.16-5.43 2.84-5.49 2.21-6.24 4.05-15.16 5.01-20.04-1.18-1.73-2-3.55-2.45-5.39-1.17-4.73.08-9.08 2.76-9.74 1.69-.42 2.91.56 3.4 2.53.65 2.61.17 7.07-1.62 12.53 2.81 4.7 8.42 10.73 9.81 16.38.61 2.47.71 4.99.01 7.34 2.3-2.82 2.63-5.74 4.39-11.94.23-.88.57-1.34.92-1.43.28-.07.49.18.62.67.07.28.09.65.05 1.11-1.44 9.94-4.14 16-13.25 18.25-7.9 1.95-11.65-1.4-12.49-4.78zm4.85-4.95c.99.66 1.25 2.01 2.12 5.54.58 2.33 1.67 3.41 3.36 2.99 2.33-.58 4.56-3.67 2.36-12.57-.59-2.4-2.06-7.13-3.34-11.39-.96 5.8-3.15 11.8-4.5 15.43z"/><path d="M120.49 31.46c1.36 6.85-1.86 17.5-9.42 19-.86.17-1.81.21-2.8.11.62 3.14 1.99 8.5 6.41 7.62 6.78-1.35 8.88-9.77 10.16-13.07.29-.8.59-1.15.94-1.23.29-.06.56.19.64.61.06.29.06.66-.02 1.04-1.62 8.63-5.37 15.89-13.57 17.52-6.13 1.22-9.74-3.85-11.08-10.62-2.11-10.63 1.29-25.61 8.77-27.1 1.57-.31 3.31-.14 4.31.4 3.07-.22 4.96 2.22 5.66 5.72zm-11.88 17.11c4.21-.84 8.03-13.31 6.92-18.87-.23-1.14-.61-2.33-1.68-2.11-4.07.81-6.67 12.3-5.83 21.03.24.02.38 0 .59-.05z"/><path d="M130.61 57.42c.02 1.61-1.08 2.59-2.31 2.77-1.37.2-2.88-.6-3.21-2.76-.75-5.03-.42-19.57 1.16-31.12.18-1.28 1.24-2.02 2.46-2.21 1.65-.25 3.7.62 4 2.64.18 1.22-.41 3.15-.58 4.5 1.76-5.92 4.32-10.42 7.85-10.95 2.66-.4 3.9 1.03 4.37 4.13.6 4.03-1.85 11.23-1.47 13.75.15 1.01.81 1.5 1.89 1.34 2.37-.35 4.54-6.04 5.34-9.03.27-1.14.68-1.87 1.11-1.93.79-.12.73 1.43.66 1.96-.47 4.26-3.67 11.36-8.63 12.1-2.88.43-5.79-.38-6.44-4.7-.59-3.96 1.85-9.25 1.52-11.48-.08-.5-.34-.83-.85-.76-2.44.37-6.81 11.53-6.86 23.96l-.01 7.79z"/><path d="M155.86 3.11c1.59-.16 3.14.63 3.31 2.36.03.29-.01.59-2.05 14.1 1.15-.92 2.54-1.58 4.06-1.74 5.64-.58 8.57 4.45 9.26 11.03 1.13 10.92-3.94 26.21-13.12 27.16-4.41.46-7.46-2.88-8.27-10.69-.35-3.4-.29-7.72.27-12.89 2.02-18.63 2.49-22.55 3.07-26.12.3-2 1.88-3.04 3.47-3.21zm.26 23.66c-.92 7.33-1.57 14.49-1.07 19.34.41 3.98 1.61 6.41 4 6.17 3.83-.4 5.57-14.03 4.62-23.21-.48-4.63-1.66-8.24-3.61-8.03-2.61.26-3.62 3.21-3.94 5.73zM210.54 8.1c-1.67.05-3.57-.03-5.46-.12.23.36.25 1.01.12 1.45-4.56 21.1-6.54 32.08-8.2 41.66-.25 1.32-1.32 1.93-2.41 1.97-1.45.05-3.09-.92-3.14-2.74-.07-2.33 2.48-22.42 6.66-39.72.32-1.25 1.24-2.22 2.53-2.85-2.19-.15-4.37-.15-6.55-.08-2.04.07-3.99.42-5.95.48-.87.03-1.25-.47-1.27-1.12-.05-1.67 1.75-4.49 3.34-4.76 1.95-.35 4.06-.49 6.24-.56 3.78-.12 7.71.04 11.35-.07 2.25-.07 4.42-.58 6.31-.64 1.24-.04 1.86 1.4 1.91 2.99.05 1.67-.54 3.44-1.92 3.7-1.09.26-2.32.37-3.56.41zM224.94 46.66c-.01 1.09.35 1.82 1 1.83 1.53.02 3.82-3.81 7.31-10.83.37-.8.96-1.23 1.32-1.22.22 0 .43.22.43.73 0 .29-.08.73-.3 1.23-1.04 2.53-5.75 14.41-11.35 14.35-2.25-.02-4.93-1.29-4.88-6.74 0-.36.01-.87.09-1.38-2.45 4.92-5.25 8.02-7.57 7.99-3.93-.04-5.55-4.28-5.5-9.95.12-11.05 6.68-27.42 15.05-27.33 2.91.03 4.69 3.18 4.82 5.43h.44c1.82.02 3.98 1.57 3.96 4.26 0 .36-.01.73-.08 1.09-2.07 9.23-4.7 17.05-4.74 20.54zm-3.85-13.85l2.44-10.45c.01-1.24-.19-2.77-1.93-2.78-4.87-.05-9.48 16.92-9.56 24.55-.02 2.18.33 3.57 1.2 3.58 2.67.02 5.94-6.85 7.85-14.9z"/><path d="M239.35 15.67c1.05-3.15 2.1-6.22 3.21-9.14.43-1.21 1.7-1.72 3.08-1.65 1.82.1 3.71 1.38 3.57 3.84-.1 1.74-1.36 4.8-2.25 7.52l7.39.64c1.23-3.72 2.45-7.29 3.73-10.57.43-1.21 1.7-1.72 3.08-1.65 1.82.1 3.71 1.38 3.57 3.84-.12 2.03-1.64 5.73-2.77 9.09 5.58.46 6.87.83 6.82 1.7-.05.94-.81 1.41-7.95 1.52-3.39 9.64-7.52 20.84-7.82 26.14-.11 1.89.27 3 1.36 3.06 3.56.2 9.35-12.07 10.51-12 .29.02.49.32.46.83-.02.29-.11.72-.36 1.22-1.16 2.48-6.84 14.11-12.94 13.76-4.94-.28-5.2-5.83-4.61-9.95-2.42 4.16-6.43 9.32-10.49 9.09-2.83-.16-5.11-2.33-4.8-7.77.27-4.79 2.67-14.93 5.8-25.16l-2.46-.36c-.87-.12-1.18-1.09-1.12-2.03.06-1.09.64-2.22 1.43-2.18l3.56.21zm-.08 33.5c2.61.15 7.25-7.16 9.13-10.7 1.09-5.04 2.83-11.42 4.79-17.72l-7.71-.22c-3.3 9.43-7.27 20.27-7.56 25.5-.08 1.31-.1 3.06 1.35 3.14z"/><path d="M298.72 29.17c2.04-4.27 6.12-7.32 10.51-6.73 5.77.77 7.49 5.99 6.64 12.26-1.47 10.95-10.71 25.12-19.21 23.98-8.72-1.17-7.04-12.61-5.24-18.9-1.77 1.67-3.91 2.92-6.44 3.17-3.82 7.12-9.72 12.86-15.2 12.12-5.77-.77-7.42-6.5-6.53-13.13.96-7.13 5.1-17.22 9.16-16.31 1.6-4.26 5.18-7.45 9.94-6.81 5.77.77 7.49 5.99 6.64 12.26-.42 3.1-1.45 6.41-2.9 9.59 4.11-1.14 6.99-5.59 9.23-9.18.85-1.34 2.1-2.42 3.4-2.32zm-26.66 5.67c-1.38 3.19-2.52 6.78-2.94 9.88-.52 3.89.09 6.98 2.47 7.3 2.23.3 4.97-3.66 7.57-9.92-3.85-1.4-6.05-4.11-7.1-7.26zm2.99-4.22c-.5 3.75.58 7.71 4.89 9.46 1.49-3.98 2.65-8.3 3.12-11.76.5-3.75.22-6.57-1.51-6.81-2.52-.34-5.83 4.14-6.5 9.11zm27.4.82c.4.27.34.78.09.97-2.95 3.42-5.8 10.37-6.52 15.78-.52 3.89.1 6.91 2.48 7.23 3.75.5 10.1-13.46 11.44-23.48.49-3.68.22-6.57-1.51-6.81-1.58-.22-4.4 2.78-5.98 6.31zM360.69 20.39c2.18 1.81 2.35 4.47 1.62 7.44-1.34 5.44-5.83 11.82-6.8 15.48-.51 1.75-2.48 2.16-4.24 1.73-1.77-.43-3.27-1.63-2.92-3.04 1.3-5.3 9.56-12.4 10.93-17.98.21-.85.28-1.73.1-2.52-7.45-1.68-20.91 16.2-24.05 28.98-1.48 6-.66 10.92 4.21 12.12 5.72 1.41 10.89-3.16 14.89-7.27.6-.6 1.14-.99 1.64-.87.21.05.32.23.21.65-.07.28-.23.62-.58 1.13-3.14 4.54-10.83 12.69-19.59 10.54-7.7-1.89-9.17-9.59-7.02-18.35 3.65-14.83 17.7-32.72 28.58-30.04 1.41.33 2.63 1.15 3.02 2z"/><path d="M382.67 23.72c1.5 1.58 2.36 3.28.97 7.95-2.86 9.62-13.52 26.1-21.71 22.75-1.61 3.39-2.9 6.42-3.54 8.58-.89 3-.47 4.64 1.48 5.22 3.69 1.1 9.63-3.05 13.52-7.21.58-.66 1.08-.82 1.43-.71.28.08.4.42.26.91-.08.28-.23.54-.5.91-3.76 4.72-12.34 11.66-18.33 9.87-4.74-1.41-5.08-6.14-3.21-12.41 1.18-3.97 3.24-8.6 5.71-13.32 6.72-13.17 15.21-26.66 21.55-24.77 1.25.38 2.09 1.39 2.37 2.23zm-19.96 29.12c7.01-2.92 15.39-16.82 17.82-24.97.33-1.12.57-2.18.68-3.06-2.74.02-12.55 15.92-18.5 28.03z"/><path d="M376.52 69.65c-.65 1.85-.54 3.05.49 3.41 3.98 1.41 11.26-10.9 19.36-24 1.28-2.09 3.29-2.54 4.93-1.96 1.51.53 2.58 2.07 1.95 3.85-.97 2.74-13.52 19.9-15.19 24.63-.44 1.23-.38 1.95.24 2.17 2.47.87 9.75-6.42 11.04-7.66.7-.68 1.24-.87 1.58-.75.27.1.41.38.24.86-.1.27-.31.66-.69 1.07-1.81 2.06-10.24 11.73-16 9.69-2.06-.73-4.14-2.7-2.63-7.41-3.11 2.91-6.15 4.3-8.96 3.31-3.84-1.36-4.1-4.77-2.55-9.15 2.35-6.65 8.75-15.57 13.03-23.31 1.09-2 3.22-2.33 4.79-1.78 1.51.53 2.63 1.93 2.05 3.58-.07.21-.17.48-.31.66-6.04 10.12-11.8 18.34-13.37 22.79z"/><path d="M423.95 39.77c1.48.62 2.45 2.05 1.78 3.66-.11.27-.29.51-8.54 11.4 1.45-.26 2.99-.17 4.4.42 5.23 2.18 5.4 8.01 2.86 14.11-4.23 10.13-15.99 21.14-24.52 17.58-4.09-1.71-5.18-6.1-2.15-13.35 1.32-3.15 3.44-6.92 6.41-11.19 10.68-15.4 12.97-18.62 15.19-21.47 1.22-1.62 3.09-1.78 4.57-1.16zm-11.09 20.9c-4.32 6-8.31 11.98-10.18 16.47-1.54 3.69-1.65 6.4.57 7.33 3.56 1.48 11.6-9.66 15.15-18.18 1.79-4.29 2.48-8.02.67-8.78-2.42-1.01-4.72 1.1-6.21 3.16z"/></g><path d="M264.24 155l-.99-1.99-45.08-46.66 37.68-36.4c1.94.22 4.21-.6 5.98-2.37 2.71-2.71 3.21-6.59 1.12-8.68s-5.97-1.58-8.68 1.12c-1.77 1.77-2.59 4.04-2.37 5.98l-36.36 37.63L179.18 66c.22-1.94-.6-4.21-2.37-5.98-2.71-2.71-6.59-3.21-8.68-1.12s-1.58 5.97 1.12 8.68c1.77 1.77 4.04 2.59 5.98 2.37l37.68 36.4-45.08 46.66-.99 1.99 1.99-.99 46.7-45.12 46.7 45.12 2.01.99zm-7.97-92.97c1.27-1.27 3.1-1.51 4.09-.53.98.98.75 2.81-.53 4.09-1.27 1.27-3.1 1.51-4.09.53-.98-.99-.74-2.82.53-4.09zm-80.92 4.09c-.98.98-2.81.75-4.09-.53-1.27-1.27-1.51-3.1-.53-4.09.98-.98 2.81-.75 4.09.53 1.28 1.27 1.52 3.1.53 4.09z" fill="#fff"/><path class="prefix__st0" d="M213.39 2.85zM191.8 3.67h.21c-.06.04-.11.09-.17.13a.495.495 0 01-.04-.13z"/><g fill="#fff"><path d="M42.27 104.72h124.25v3H42.27zM264.63 104.72h124.25v3H264.63z"/></g></svg>