<?xml version="1.0" encoding="utf-8"?>
<svg version="1.1" id="Layer_1" xmlns="http://www.w3.org/2000/svg" xmlns:xlink="http://www.w3.org/1999/xlink" x="0px" y="0px" viewBox="0 0 427 156" style="enable-background:new 0 0 427 156;" xml:space="preserve">
<g>
	<g>
		<path style="fill:#FFF;" d="M26.41,52.02c5.87,13.78,5.88,35.35-4.02,39.56c-6.82,2.9-13.31-2.31-17.13-11.28c-1.96-4.62-3.75-10.1-0.18-14.54
			c-1.2-1.15-2.06-2.6-2.74-4.21c-2.99-7.02-1.21-16.95,6.28-20.14C17.85,37.48,23.27,44.66,26.41,52.02z M12.08,42.31
			C6.89,44.6,6.17,54.23,8.96,60.79c1.34,3.14,3.47,5.56,6.33,6.16c0.61,0.14,0.95,0.38,1.1,0.72c0.11,0.27,0,0.55-0.54,0.78
			c-1.94,0.83-4.72,0.43-6.32,0l0.13,1.05c0.53,4.59,1.43,9.11,3.1,12.67c2.11,4.95,4.87,8.28,8.03,8.28
			c6.19-2.71,2.78-27.81-2.74-40.79C16.82,46.77,15.39,43.03,12.08,42.31z"/>
		<path style="fill:#FFF;" d="M39.49,27.45c2.15,0.39,3.85,1.24,5.49,5.83c3.39,9.44,4.56,29.03-4.01,31.19c0.71,3.69,1.47,6.89,2.23,9.01
			c1.06,2.94,2.37,4.02,4.29,3.33c3.63-1.3,5.95-8.16,6.63-13.82c0.07-0.88,0.38-1.3,0.73-1.42c0.27-0.1,0.58,0.1,0.75,0.58
			c0.1,0.27,0.13,0.57,0.14,1.03c-0.23,6.03-3.04,16.7-8.92,18.81c-4.65,1.67-7.73-1.94-9.94-8.1c-1.4-3.9-2.48-8.84-3.29-14.11
			c-2.39-14.6-3.54-30.48,2.69-32.72C37.49,26.62,38.77,26.93,39.49,27.45z M40.65,62.72c3.92-6.51,2.44-22.67-0.43-30.67
			c-0.39-1.09-0.83-2.1-1.26-2.87C36.76,30.82,38.28,49.44,40.65,62.72z"/>
		<path style="fill:#FFF;" d="M74.55,64.83c0.57,1.88,1.3,2.8,2.28,2.5c2.44-0.74,3.38-8.16,4.11-12.56c0.12-0.87,0.55-1.46,0.9-1.56
			c0.28-0.08,0.5,0.15,0.63,0.57c0.08,0.28,0.14,0.72,0.08,1.27c-0.46,4.77-0.34,15.22-7.16,17.28c-2.78,0.84-5.29-1.67-6.55-5.85
			c-0.06-0.21-0.19-0.63-0.25-1.07c-0.83,5.8-2.67,9.77-5.04,10.49c-3.76,1.14-6.58-2.42-8.22-7.85
			c-3.2-10.58-1.82-28.16,6.18-30.58c1.88-0.57,3.5,0.77,4.63,2.25c-0.52-6.98-0.81-13.73-0.92-17.88c-0.04-1.13,0.72-1.89,1.76-2.2
			c1.74-0.53,4.25,0.24,5.03,2.81C73.37,26.98,72.11,56.75,74.55,64.83z M66.36,42.77c-0.34-0.88-1.07-2.03-2.6-1.57
			c-4.66,1.41-3.99,18.98-1.78,26.29c0.63,2.09,1.38,3.31,2.21,3.05c2.78-0.84,3.4-8.62,2.96-17.61
			C66.88,49.75,66.59,46.27,66.36,42.77z"/>
		<path style="fill:#FFF;" d="M77.11,63.68c-0.54-2.19,0.16-5.43,2.84-5.49c2.21-6.24,4.05-15.16,5.01-20.04c-1.18-1.73-2-3.55-2.45-5.39
			c-1.17-4.73,0.08-9.08,2.76-9.74c1.69-0.42,2.91,0.56,3.4,2.53c0.65,2.61,0.17,7.07-1.62,12.53c2.81,4.7,8.42,10.73,9.81,16.38
			c0.61,2.47,0.71,4.99,0.01,7.34c2.3-2.82,2.63-5.74,4.39-11.94c0.23-0.88,0.57-1.34,0.92-1.43c0.28-0.07,0.49,0.18,0.62,0.67
			c0.07,0.28,0.09,0.65,0.05,1.11c-1.44,9.94-4.14,16-13.25,18.25C81.7,70.41,77.95,67.06,77.11,63.68z M81.96,58.73
			c0.99,0.66,1.25,2.01,2.12,5.54c0.58,2.33,1.67,3.41,3.36,2.99c2.33-0.58,4.56-3.67,2.36-12.57c-0.59-2.4-2.06-7.13-3.34-11.39
			C85.5,49.1,83.31,55.1,81.96,58.73z"/>
		<path style="fill:#FFF;" d="M120.49,31.46c1.36,6.85-1.86,17.5-9.42,19c-0.86,0.17-1.81,0.21-2.8,0.11c0.62,3.14,1.99,8.5,6.41,7.62
			c6.78-1.35,8.88-9.77,10.16-13.07c0.29-0.8,0.59-1.15,0.94-1.23c0.29-0.06,0.56,0.19,0.64,0.61c0.06,0.29,0.06,0.66-0.02,1.04
			c-1.62,8.63-5.37,15.89-13.57,17.52c-6.13,1.22-9.74-3.85-11.08-10.62c-2.11-10.63,1.29-25.61,8.77-27.1
			c1.57-0.31,3.31-0.14,4.31,0.4C117.9,25.52,119.79,27.96,120.49,31.46z M108.61,48.57c4.21-0.84,8.03-13.31,6.92-18.87
			c-0.23-1.14-0.61-2.33-1.68-2.11c-4.07,0.81-6.67,12.3-5.83,21.03C108.26,48.64,108.4,48.62,108.61,48.57z"/>
		<path style="fill:#FFF;" d="M130.61,57.42c0.02,1.61-1.08,2.59-2.31,2.77c-1.37,0.2-2.88-0.6-3.21-2.76c-0.75-5.03-0.42-19.57,1.16-31.12
			c0.18-1.28,1.24-2.02,2.46-2.21c1.65-0.25,3.7,0.62,4,2.64c0.18,1.22-0.41,3.15-0.58,4.5c1.76-5.92,4.32-10.42,7.85-10.95
			c2.66-0.4,3.9,1.03,4.37,4.13c0.6,4.03-1.85,11.23-1.47,13.75c0.15,1.01,0.81,1.5,1.89,1.34c2.37-0.35,4.54-6.04,5.34-9.03
			c0.27-1.14,0.68-1.87,1.11-1.93c0.79-0.12,0.73,1.43,0.66,1.96c-0.47,4.26-3.67,11.36-8.63,12.1c-2.88,0.43-5.79-0.38-6.44-4.7
			c-0.59-3.96,1.85-9.25,1.52-11.48c-0.08-0.5-0.34-0.83-0.85-0.76c-2.44,0.37-6.81,11.53-6.86,23.96L130.61,57.42z"/>
		<path style="fill:#FFF;" d="M155.86,3.11c1.59-0.16,3.14,0.63,3.31,2.36c0.03,0.29-0.01,0.59-2.05,14.1c1.15-0.92,2.54-1.58,4.06-1.74
			c5.64-0.58,8.57,4.45,9.26,11.03c1.13,10.92-3.94,26.21-13.12,27.16c-4.41,0.46-7.46-2.88-8.27-10.69
			c-0.35-3.4-0.29-7.72,0.27-12.89c2.02-18.63,2.49-22.55,3.07-26.12C152.69,4.32,154.27,3.28,155.86,3.11z M156.12,26.77
			c-0.92,7.33-1.57,14.49-1.07,19.34c0.41,3.98,1.61,6.41,4,6.17c3.83-0.4,5.57-14.03,4.62-23.21c-0.48-4.63-1.66-8.24-3.61-8.03
			C157.45,21.3,156.44,24.25,156.12,26.77z"/>
		<path style="fill:#FFF;" d="M210.54,8.1c-1.67,0.05-3.57-0.03-5.46-0.12c0.23,0.36,0.25,1.01,0.12,1.45c-4.56,21.1-6.54,32.08-8.2,41.66
			c-0.25,1.32-1.32,1.93-2.41,1.97c-1.45,0.05-3.09-0.92-3.14-2.74c-0.07-2.33,2.48-22.42,6.66-39.72c0.32-1.25,1.24-2.22,2.53-2.85
			c-2.19-0.15-4.37-0.15-6.55-0.08c-2.04,0.07-3.99,0.42-5.95,0.48c-0.87,0.03-1.25-0.47-1.27-1.12c-0.05-1.67,1.75-4.49,3.34-4.76
			c1.95-0.35,4.06-0.49,6.24-0.56c3.78-0.12,7.71,0.04,11.35-0.07c2.25-0.07,4.42-0.58,6.31-0.64c1.24-0.04,1.86,1.4,1.91,2.99
			c0.05,1.67-0.54,3.44-1.92,3.7C213.01,7.95,211.78,8.06,210.54,8.1z"/>
		<path style="fill:#FFF;" d="M224.94,46.66c-0.01,1.09,0.35,1.82,1,1.83c1.53,0.02,3.82-3.81,7.31-10.83c0.37-0.8,0.96-1.23,1.32-1.22
			c0.22,0,0.43,0.22,0.43,0.73c0,0.29-0.08,0.73-0.3,1.23c-1.04,2.53-5.75,14.41-11.35,14.35c-2.25-0.02-4.93-1.29-4.88-6.74
			c0-0.36,0.01-0.87,0.09-1.38c-2.45,4.92-5.25,8.02-7.57,7.99c-3.93-0.04-5.55-4.28-5.5-9.95c0.12-11.05,6.68-27.42,15.05-27.33
			c2.91,0.03,4.69,3.18,4.82,5.43l0.44,0c1.82,0.02,3.98,1.57,3.96,4.26c0,0.36-0.01,0.73-0.08,1.09
			C227.61,35.35,224.98,43.17,224.94,46.66z M221.09,32.81l2.44-10.45c0.01-1.24-0.19-2.77-1.93-2.78
			c-4.87-0.05-9.48,16.92-9.56,24.55c-0.02,2.18,0.33,3.57,1.2,3.58C215.91,47.73,219.18,40.86,221.09,32.81z"/>
		<path style="fill:#FFF;" d="M239.35,15.67c1.05-3.15,2.1-6.22,3.21-9.14c0.43-1.21,1.7-1.72,3.08-1.65c1.82,0.1,3.71,1.38,3.57,3.84
			c-0.1,1.74-1.36,4.8-2.25,7.52l7.39,0.64c1.23-3.72,2.45-7.29,3.73-10.57c0.43-1.21,1.7-1.72,3.08-1.65
			c1.82,0.1,3.71,1.38,3.57,3.84c-0.12,2.03-1.64,5.73-2.77,9.09c5.58,0.46,6.87,0.83,6.82,1.7c-0.05,0.94-0.81,1.41-7.95,1.52
			c-3.39,9.64-7.52,20.84-7.82,26.14c-0.11,1.89,0.27,3,1.36,3.06c3.56,0.2,9.35-12.07,10.51-12c0.29,0.02,0.49,0.32,0.46,0.83
			c-0.02,0.29-0.11,0.72-0.36,1.22c-1.16,2.48-6.84,14.11-12.94,13.76c-4.94-0.28-5.2-5.83-4.61-9.95
			c-2.42,4.16-6.43,9.32-10.49,9.09c-2.83-0.16-5.11-2.33-4.8-7.77c0.27-4.79,2.67-14.93,5.8-25.16l-2.46-0.36
			c-0.87-0.12-1.18-1.09-1.12-2.03c0.06-1.09,0.64-2.22,1.43-2.18L239.35,15.67z M239.27,49.17c2.61,0.15,7.25-7.16,9.13-10.7
			c1.09-5.04,2.83-11.42,4.79-17.72l-7.71-0.22c-3.3,9.43-7.27,20.27-7.56,25.5C237.84,47.34,237.82,49.09,239.27,49.17z"/>
		<path style="fill:#FFF;" d="M298.72,29.17c2.04-4.27,6.12-7.32,10.51-6.73c5.77,0.77,7.49,5.99,6.64,12.26c-1.47,10.95-10.71,25.12-19.21,23.98
			c-8.72-1.17-7.04-12.61-5.24-18.9c-1.77,1.67-3.91,2.92-6.44,3.17c-3.82,7.12-9.72,12.86-15.2,12.12
			c-5.77-0.77-7.42-6.5-6.53-13.13c0.96-7.13,5.1-17.22,9.16-16.31c1.6-4.26,5.18-7.45,9.94-6.81c5.77,0.77,7.49,5.99,6.64,12.26
			c-0.42,3.1-1.45,6.41-2.9,9.59c4.11-1.14,6.99-5.59,9.23-9.18C296.17,30.15,297.42,29.07,298.72,29.17z M272.06,34.84
			c-1.38,3.19-2.52,6.78-2.94,9.88c-0.52,3.89,0.09,6.98,2.47,7.3c2.23,0.3,4.97-3.66,7.57-9.92
			C275.31,40.7,273.11,37.99,272.06,34.84z M275.05,30.62c-0.5,3.75,0.58,7.71,4.89,9.46c1.49-3.98,2.65-8.3,3.12-11.76
			c0.5-3.75,0.22-6.57-1.51-6.81C279.03,21.17,275.72,25.65,275.05,30.62z M302.45,31.44c0.4,0.27,0.34,0.78,0.09,0.97
			c-2.95,3.42-5.8,10.37-6.52,15.78c-0.52,3.89,0.1,6.91,2.48,7.23c3.75,0.5,10.1-13.46,11.44-23.48c0.49-3.68,0.22-6.57-1.51-6.81
			C306.85,24.91,304.03,27.91,302.45,31.44z"/>
		<path style="fill:#FFF;" d="M360.69,20.39c2.18,1.81,2.35,4.47,1.62,7.44c-1.34,5.44-5.83,11.82-6.8,15.48c-0.51,1.75-2.48,2.16-4.24,1.73
			c-1.77-0.43-3.27-1.63-2.92-3.04c1.3-5.3,9.56-12.4,10.93-17.98c0.21-0.85,0.28-1.73,0.1-2.52c-7.45-1.68-20.91,16.2-24.05,28.98
			c-1.48,6-0.66,10.92,4.21,12.12c5.72,1.41,10.89-3.16,14.89-7.27c0.6-0.6,1.14-0.99,1.64-0.87c0.21,0.05,0.32,0.23,0.21,0.65
			c-0.07,0.28-0.23,0.62-0.58,1.13c-3.14,4.54-10.83,12.69-19.59,10.54c-7.7-1.89-9.17-9.59-7.02-18.35
			c3.65-14.83,17.7-32.72,28.58-30.04C359.08,18.72,360.3,19.54,360.69,20.39z"/>
		<path style="fill:#FFF;" d="M382.67,23.72c1.5,1.58,2.36,3.28,0.97,7.95c-2.86,9.62-13.52,26.1-21.71,22.75c-1.61,3.39-2.9,6.42-3.54,8.58
			c-0.89,3-0.47,4.64,1.48,5.22c3.69,1.1,9.63-3.05,13.52-7.21c0.58-0.66,1.08-0.82,1.43-0.71c0.28,0.08,0.4,0.42,0.26,0.91
			c-0.08,0.28-0.23,0.54-0.5,0.91c-3.76,4.72-12.34,11.66-18.33,9.87c-4.74-1.41-5.08-6.14-3.21-12.41
			c1.18-3.97,3.24-8.6,5.71-13.32c6.72-13.17,15.21-26.66,21.55-24.77C381.55,21.87,382.39,22.88,382.67,23.72z M362.71,52.84
			c7.01-2.92,15.39-16.82,17.82-24.97c0.33-1.12,0.57-2.18,0.68-3.06C378.47,24.83,368.66,40.73,362.71,52.84z"/>
		<path style="fill:#FFF;" d="M376.52,69.65c-0.65,1.85-0.54,3.05,0.49,3.41c3.98,1.41,11.26-10.9,19.36-24c1.28-2.09,3.29-2.54,4.93-1.96
			c1.51,0.53,2.58,2.07,1.95,3.85c-0.97,2.74-13.52,19.9-15.19,24.63c-0.44,1.23-0.38,1.95,0.24,2.17
			c2.47,0.87,9.75-6.42,11.04-7.66c0.7-0.68,1.24-0.87,1.58-0.75c0.27,0.1,0.41,0.38,0.24,0.86c-0.1,0.27-0.31,0.66-0.69,1.07
			c-1.81,2.06-10.24,11.73-16,9.69c-2.06-0.73-4.14-2.7-2.63-7.41c-3.11,2.91-6.15,4.3-8.96,3.31c-3.84-1.36-4.1-4.77-2.55-9.15
			c2.35-6.65,8.75-15.57,13.03-23.31c1.09-2,3.22-2.33,4.79-1.78c1.51,0.53,2.63,1.93,2.05,3.58c-0.07,0.21-0.17,0.48-0.31,0.66
			C383.85,56.98,378.09,65.2,376.52,69.65z"/>
		<path style="fill:#FFF;" d="M423.95,39.77c1.48,0.62,2.45,2.05,1.78,3.66c-0.11,0.27-0.29,0.51-8.54,11.4c1.45-0.26,2.99-0.17,4.4,0.42
			c5.23,2.18,5.4,8.01,2.86,14.11c-4.23,10.13-15.99,21.14-24.52,17.58c-4.09-1.71-5.18-6.1-2.15-13.35
			c1.32-3.15,3.44-6.92,6.41-11.19c10.68-15.4,12.97-18.62,15.19-21.47C420.6,39.31,422.47,39.15,423.95,39.77z M412.86,60.67
			c-4.32,6-8.31,11.98-10.18,16.47c-1.54,3.69-1.65,6.4,0.57,7.33c3.56,1.48,11.6-9.66,15.15-18.18c1.79-4.29,2.48-8.02,0.67-8.78
			C416.65,56.5,414.35,58.61,412.86,60.67z"/>
	</g>
	<path style="fill:#FFF;" d="M264.24,155l-0.99-1.99l-45.08-46.66l37.68-36.4c1.94,0.22,4.21-0.6,5.98-2.37c2.71-2.71,3.21-6.59,1.12-8.68
		c-2.09-2.09-5.97-1.58-8.68,1.12c-1.77,1.77-2.59,4.04-2.37,5.98l-36.36,37.63l-36.36-37.63c0.22-1.94-0.6-4.21-2.37-5.98
		c-2.71-2.71-6.59-3.21-8.68-1.12c-2.09,2.09-1.58,5.97,1.12,8.68c1.77,1.77,4.04,2.59,5.98,2.37l37.68,36.4l-45.08,46.66
		l-0.99,1.99l1.99-0.99l46.7-45.12l46.7,45.12L264.24,155z M256.27,62.03c1.27-1.27,3.1-1.51,4.09-0.53
		c0.98,0.98,0.75,2.81-0.53,4.09c-1.27,1.27-3.1,1.51-4.09,0.53C254.76,65.13,255,63.3,256.27,62.03z M175.35,66.12
		c-0.98,0.98-2.81,0.75-4.09-0.53c-1.27-1.27-1.51-3.1-0.53-4.09c0.98-0.98,2.81-0.75,4.09,0.53
		C176.1,63.3,176.34,65.13,175.35,66.12z"/>
	<path class="st0" d="M213.39,2.85L213.39,2.85L213.39,2.85z"/>
	<path class="st0" d="M191.8,3.67c0.07,0,0.14,0,0.21,0c-0.06,0.04-0.11,0.09-0.17,0.13C191.82,3.76,191.81,3.72,191.8,3.67z"/>
	<g>
		<rect style="fill:#FFF;" x="42.27" y="104.72" width="124.25" height="3"/>
		<rect style="fill:#FFF;" x="264.63" y="104.72" width="124.25" height="3"/>
	</g>
</g>
</svg>
